<svg width="70" height="38" viewBox="0 0 70 38" fill="none" xmlns="http://www.w3.org/2000/svg">
<g id="Logo">
<g id="Group">
<path id="Vector" d="M34.65 37.2002C25.5743 37.2002 16.996 35.3754 10.5311 31.9774C3.81759 28.5165 0.150024 23.7971 0.150024 18.7002C0.150024 13.6033 3.81759 8.88387 10.5311 5.42298C16.996 2.02503 25.5743 0.200195 34.65 0.200195C43.7257 0.200195 52.3041 2.02503 58.7689 5.42298C65.4825 8.88387 69.15 13.6662 69.15 18.7631C69.15 23.8601 65.4825 28.5165 58.7689 32.0403C52.3041 35.3754 43.7257 37.2002 34.65 37.2002ZM34.65 2.65428C25.9473 2.65428 17.8041 4.41618 11.65 7.56244C5.80678 10.6458 2.57435 14.6101 2.57435 18.7002C2.57435 22.7903 5.80678 26.7546 11.65 29.8379C17.7419 32.9842 25.9473 34.7461 34.65 34.7461C43.3527 34.7461 51.496 32.9842 57.65 29.8379C63.4933 26.8175 66.7257 22.8533 66.7257 18.7002C66.7257 14.5471 63.4933 10.6458 57.65 7.56244C51.496 4.41618 43.3527 2.65428 34.65 2.65428Z" fill="black"/>
</g>
<g id="Group_2">
<g id="Group_3">
<path id="Vector_2" d="M50.4392 10.8345C51.1852 11.212 51.8068 11.8413 52.3041 12.5964C52.8014 13.4144 53.1122 14.2954 53.1744 15.428L51.123 16.0573C50.9987 14.9246 50.6257 14.0437 49.9419 13.4144C49.2582 12.7852 48.4501 12.4705 47.3933 12.4705C46.3365 12.4705 45.4663 12.7222 44.6582 13.2886C43.9122 13.792 43.2906 14.5471 42.9176 15.5539C42.5447 16.5607 42.296 17.6933 42.296 19.0147V26.6287H39.9338V10.8974H41.9852L42.1717 13.792C42.7311 12.7222 43.4149 11.8413 44.3474 11.212C45.2798 10.5828 46.3365 10.2681 47.5798 10.2681C48.7609 10.2052 49.6311 10.394 50.4392 10.8345Z" fill="black"/>
</g>
<g id="Group_4">
<path id="Vector_3" d="M37.3852 24.4892C37.1987 24.7409 36.9501 24.9926 36.6392 25.1813C36.5149 25.2443 36.3906 25.3072 36.2663 25.3701C35.6446 25.6218 35.0852 25.496 34.7744 25.1184C34.5257 24.8667 34.4014 24.5521 34.4014 24.1116V21.5946H32.1014L30.2987 23.1677C29.7392 23.6711 29.0555 24.0487 28.2473 24.3633C27.0663 24.8667 25.6987 25.1184 24.2068 25.1184C22.6528 25.1184 21.4095 24.8667 20.4771 24.4262C19.6068 23.9228 19.1095 23.2936 19.1095 22.4756C19.1095 21.6575 19.6068 20.9653 20.6014 20.4619C21.596 19.9585 23.0879 19.581 25.2014 19.3293L32.0392 18.763C33.4068 18.6371 34.4014 17.5045 34.4014 16.1201V16.0572C34.4014 14.8616 34.0284 13.7919 33.3446 12.9738C32.6609 12.0929 31.6663 11.4636 30.423 10.9602C29.1798 10.5198 27.8122 10.2681 26.3203 10.2681C24.8906 10.2681 23.5852 10.4568 22.2798 10.8973C21.0365 11.3378 19.9176 11.9041 18.9852 12.5334C18.0528 13.2255 17.4311 13.9807 17.1203 14.7987L18.8609 15.9943C19.1717 15.365 19.669 14.7358 20.3528 14.2324C21.0987 13.666 21.969 13.2256 23.0257 12.9109C24.0825 12.5963 25.1392 12.4075 26.2582 12.4075C27.3771 12.4075 28.3717 12.5334 29.2419 12.7851C30.1122 13.0368 30.8582 13.4143 31.3555 13.9177C31.8528 14.4211 32.1014 14.9875 32.1014 15.6167C32.1014 15.9943 31.9771 16.246 31.7284 16.4347C31.4798 16.6235 31.169 16.7494 30.796 16.7494L25.0149 17.3157C22.2798 17.6303 20.2284 18.1966 18.8609 19.0776C17.4933 19.9585 16.8095 21.1541 16.8095 22.5385C16.8095 23.4824 17.1203 24.3004 17.6798 24.9926C18.2392 25.6847 19.0473 26.2511 20.1041 26.6286C21.1609 27.0062 22.4663 27.1949 23.896 27.1949C25.0771 27.1949 26.2582 27.0691 27.3149 26.7545C28.3717 26.4398 29.3041 25.9994 30.1122 25.496C30.9203 24.9296 31.4798 24.4262 31.9149 23.6711L32.1636 23.6082L32.1014 24.2375C32.1014 24.8667 32.2257 25.3701 32.4744 25.8106C32.723 26.2511 33.096 26.5657 33.5933 26.8803C34.0284 27.132 34.5879 27.2579 35.1473 27.2579C35.8311 27.2579 36.5149 27.132 37.1365 26.8174C37.8203 26.5028 38.2555 26.0623 38.5663 25.5589L37.3852 24.4892Z" fill="black"/>
</g>
</g>
</g>
</svg>
